#!OML:ASF I:\Actors\actors\Patient Classification 2\Patient 1\Session 1\actor1.ASF
:FULLY-SPECIFIED
:DEGREES
392
root -1.34048 17.4568 6.9657 -10.6938 4.50192 -13.1136
lowerback 8.95031 -1.44515 7.10055
upperback -3.46907 -0.647206 4.75781
thorax -8.79608 -0.551765 1.19703
lowerneck -25.7594 -2.6637 -1.62095
upperneck 27.6301 -3.54466 1.08867
head 13.7292 -1.55337 0.0294056
rclavicle 3.48494e-015 2.25372e-014
rhumerus 42.0241 -37.986 -9.40333
rradius 40.786
rwrist 0.384152
rhand -51.5494 -55.5497
rfingers 7.12502
rthumb -24.0755 -84.0594
lclavicle 3.48494e-015 2.25372e-014
lhumerus 51.8961 35.2053 30.8982
lradius 40.1229
lwrist 8.61976
lhand -35.4128 -55.3173
lfingers 7.12502
lthumb -8.54312 -25.5101
rfemur 25.008 -6.33712 29.329
rtibia 3.81667e-014
rfoot -20.8837 -7.86908
rtoes 4.43357
lfemur 39.7133 -2.02568 -0.466768
ltibia -37.3498
lfoot 8.59102 10.1388
ltoes -22.4269
393
root -1.34942 17.4632 6.9643 -10.6908 4.43723 -12.7817
lowerback 8.86646 -1.39074 6.84011
upperback -3.53876 -0.625193 4.58744
thorax -8.81727 -0.533963 1.15514
lowerneck -26.1008 -2.67556 -1.76106
upperneck 27.392 -3.52037 1.18219
head 13.703 -1.5432 0.091802
rclavicle -1.83643e-014 3.15912e-014
rhumerus 43.0365 -38.6377 -11.3498
rradius 40.7376
rwrist 2.71946
rhand -51.2575 -54.0793
rfingers 7.12502
rthumb -23.7956 -82.6258
lclavicle -1.83643e-014 3.15912e-014
lhumerus 54.5827 36.1081 35.4278
lradius 39.9942
lwrist 4.96844
lhand -34.9948 -55.2887
lfingers 7.12502
lthumb -8.13972 -25.4655
rfemur 25.0662 -6.2358 29.0357
rtibia -2.22639e-014
rfoot -20.9038 -7.93658
rtoes 3.96271
lfemur 39.5987 -1.94653 -0.790632
ltibia -36.9759
lfoot 8.23555 10.1867
ltoes -22.0695
394
root -1.35418 17.4667 6.96456 -10.618 4.31269 -12.542
lowerback 8.72368 -1.29705 6.77779
upperback -3.60801 -0.530377 4.43176
thorax -8.80528 -0.490742 1.00555
lowerneck -26.3701 -2.71215 -1.81536
upperneck 26.938 -3.52767 1.16834
head 13.567 -1.55519 0.0930022
rclavicle -6.11263e-015 -8.17502e-015
rhumerus 42.773 -38.6853 -11.0484
rradius 40.5986
rwrist 3.83309
rhand -51.0558 -53.2658
rfingers 7.12502
rthumb -23.6021 -81.8373
lclavicle -6.11263e-015 -8.17502e-015
lhumerus 53.1557 35.7659 32.7165
lradius 39.9309
lwrist 6.35967
lhand -35.4574 -55.1021
lfingers 7.12502
lthumb -8.58624 -25.2967
rfemur 25.0503 -6.07471 28.8391
rtibia 2.8625e-014
rfoot -20.9222 -7.92912
rtoes 3.49256
lfemur 39.4867 -1.83507 -1.02658
ltibia -36.6997
lfoot 7.97812 10.2664
ltoes -21.6765
395
root -1.3558 17.469 6.96548 -10.4899 4.19747 -12.347
lowerback 8.55101 -1.20376 6.82062
upperback -3.70159 -0.422311 4.29776
thorax -8.80359 -0.446718 0.819293
lowerneck -26.7246 -2.76101 -1.79243
upperneck 26.6002 -3.54743 1.03375
head 13.493 -1.58077 0.0296499
rclavicle 1.20762e-014 -4.57205e-015
rhumerus 42.2134 -38.3981 -9.9901
rradius 40.3866
rwrist 4.17128
rhand -50.9058 -53.4624
rfingers 7.12502
rthumb -23.4582 -82.0523
lclavicle 1.20762e-014 -4.57205e-015
lhumerus 52.232 35.5512 31.0111
lradius 39.8903
lwrist 6.984
lhand -35.7302 -55.1574
lfingers 7.12502
lthumb -8.84947 -25.363
rfemur 24.9673 -5.91279 28.6726
rtibia -1.27222e-014
rfoot -20.9624 -7.77673
rtoes 3.94331
lfemur 39.3625 -1.77238 -1.24248
ltibia -36.5103
lfoot 7.77659 10.4081
ltoes -21.1022
396
root -1.35684 17.4717 6.966 -10.3614 4.11269 -12.1822
lowerback 8.41844 -1.15688 6.87432
upperback -3.82953 -0.365956 4.19193
thorax -8.86491 -0.429107 0.668307
lowerneck -27.0865 -2.7772 -1.76654
upperneck 26.4236 -3.5371 0.933688
head 13.4881 -1.58683 -0.0156354
rclavicle 9.49197e-015 -5.20816e-014
rhumerus 41.9027 -38.1267 -9.37279
rradius 40.4498
rwrist 4.04168
rhand -50.856 -53.6324
rfingers 7.12502
rthumb -23.4105 -82.2284
lclavicle 9.49197e-015 -5.20816e-014
lhumerus 51.3574 35.3988 29.6932
lradius 39.974
lwrist 7.56349
lhand -35.909 -55.3912
lfingers 7.12502
lthumb -9.02194 -25.6041
rfemur 24.874 -5.78675 28.5319
rtibia 6.36111e-015
rfoot -21.0434 -7.58936
rtoes 4.63316
lfemur 39.2362 -1.68291 -1.41093
ltibia -36.37
lfoot 7.65264 10.467
ltoes -20.7718
397
root -1.35891 17.4757 6.96619 -10.2032 4.05434 -12.0687
lowerback 8.28773 -1.13443 6.88562
upperback -4.01846 -0.339321 4.12725
thorax -8.99468 -0.424335 0.592015
lowerneck -27.1804 -2.75134 -1.71879
upperneck 26.1925 -3.50117 0.896585
head 13.4078 -1.57255 -0.0308905
rclavicle 1.36789e-014 -2.8128e-014
rhumerus 41.7255 -37.8312 -9.08849
rradius 40.6773
rwrist 3.55384
rhand -50.8515 -53.4077
rfingers 7.12502
rthumb -23.4062 -82.0043
lclavicle 1.36789e-014 -2.8128e-014
lhumerus 50.6458 35.2769 28.8323
lradius 40.0968
lwrist 7.85447
lhand -35.9469 -55.3004
lfingers 7.12502
lthumb -9.05856 -25.5149
rfemur 24.7311 -5.69567 28.4492
rtibia -2.22639e-014
rfoot -21.1006 -7.47309
rtoes 5.00386
lfemur 39.0491 -1.52054 -1.4926
ltibia -36.2467
lfoot 7.6036 10.3658
ltoes -21.0296
398
root -1.36168 17.481 6.96446 -10.0199 4.0171 -11.9241
lowerback 8.08561 -1.08501 6.80052
upperback -4.18747 -0.296903 4.06632
thorax -9.05791 -0.404671 0.568239
lowerneck -27.1585 -2.72968 -1.65711
upperneck 25.9077 -3.47994 0.863583
head 13.2829 -1.56379 -0.0477685
rclavicle -1.63003e-014 -8.89561e-015
rhumerus 42.0765 -37.616 -9.25027
rradius 40.4711
rwrist 3.72437
rhand -50.8795 -53.5055
rfingers 7.12502
rthumb -23.433 -82.0987
lclavicle -1.63003e-014 -8.89561e-015
lhumerus 50.6877 35.325 29.0165
lradius 40.0373
lwrist 7.30302
lhand -35.8236 -55.0089
lfingers 7.12502
lthumb -8.93957 -25.2183
rfemur 24.5504 -5.61655 28.3337
rtibia -5.725e-014
rfoot -21.102 -7.46178
rtoes 4.84546
lfemur 38.8122 -1.41695 -1.63217
ltibia -36.1179
lfoot 7.53726 10.3104
ltoes -21.3605
399
root -1.36406 17.486 6.9595 -9.92445 3.96681 -11.7753
lowerback 7.9485 -1.01951 6.67661
upperback -4.26881 -0.235036 4.03061
thorax -9.0615 -0.3699 0.588494
lowerneck -27.3286 -2.72419 -1.63421
upperneck 25.7678 -3.46119 0.820091
head 13.2567 -1.5593 -0.0661568
rclavicle -8.83349e-015 -1.03865e-014
rhumerus 41.7292 -37.5374 -8.80367
rradius 40.6074
rwrist 3.47472
rhand -50.939 -53.158
rfingers 7.12502
rthumb -23.4901 -81.7439
lclavicle -8.83349e-015 -1.03865e-014
lhumerus 51.1277 35.4873 29.6413
lradius 39.8647
lwrist 6.54875
lhand -35.6566 -54.9072
lfingers 7.12502
lthumb -8.77843 -25.1098
rfemur 24.4538 -5.53652 28.206
rtibia 4.77083e-014
rfoot -21.08 -7.5243
rtoes 4.10552
lfemur 38.6573 -1.43111 -1.8142
ltibia -35.9775
lfoot 7.42213 10.3955
ltoes -21.4398
400
root -1.3647 17.4895 6.95227 -9.89287 3.90718 -11.675
lowerback 7.8983 -0.969312 6.62598
upperback -4.31046 -0.177033 4.01599
thorax -9.07436 -0.340134 0.592011
lowerneck -27.566 -2.7267 -1.66622
upperneck 25.703 -3.44529 0.823005
head 13.2769 -1.55385 -0.059135
rclavicle -6.49777e-015 1.89342e-014
rhumerus 41.0479 -37.4071 -7.95895
rradius 40.9031
rwrist 3.11324
rhand -50.8717 -53.085
rfingers 7.12502
rthumb -23.4255 -81.6792
lclavicle -6.49777e-015 1.89342e-014
lhumerus 51.3049 35.5596 29.7701
lradius 39.719
lwrist 6.38474
lhand -35.6518 -54.8378
lfingers 7.12502
lthumb -8.77382 -25.0401
rfemur 24.4039 -5.46014 28.113
rtibia 2.22639e-014
rfoot -21.0451 -7.55998
rtoes 3.54695
lfemur 38.5648 -1.43673 -1.93839
ltibia -35.8364
lfoot 7.30885 10.4426
ltoes -21.3337
401
root -1.36389 17.4918 6.94272 -9.86737 3.86269 -11.6288
lowerback 7.84226 -0.941684 6.65712
upperback -4.3327 -0.141239 4.00556
thorax -9.0647 -0.325179 0.557447
lowerneck -27.7093 -2.70976 -1.68726
upperneck 25.5702 -3.41169 0.841859
head 13.2505 -1.53826 -0.0425845
rclavicle 8.28684e-015 -9.29318e-015
rhumerus 38.9318 -36.8606 -5.14365
rradius 41.6732
rwrist 1.23013
rhand -50.6631 -53.2705
rfingers 7.12502
rthumb -23.2254 -81.89
lclavicle 8.28684e-015 -9.29318e-015
lhumerus 51.2465 35.5382 29.5439
lradius 39.6717
lwrist 6.51287
lhand -35.7662 -54.6501
lfingers 7.12502
lthumb -8.88424 -24.8571
rfemur 24.3384 -5.4057 28.0661
rtibia 5.08889e-014
rfoot -21.015 -7.53782
rtoes 3.58557
lfemur 38.4708 -1.39566 -1.98785
ltibia -35.7153
lfoot 7.20674 10.4497
ltoes -21.2102
